<?xml version="1.0" encoding="utf-8"?>
<!-- Generator: Adobe Illustrator 24.3.0, SVG Export Plug-In . SVG Version: 6.00 Build 0)  -->
<svg version="1.1" id="Capa_1" xmlns="http://www.w3.org/2000/svg" xmlns:xlink="http://www.w3.org/1999/xlink" x="0px" y="0px"
	 viewBox="0 0 800 800" style="enable-background:new 0 0 800 800;" xml:space="preserve">
<style type="text/css">
	.st0{fill:#3954A4;}
</style>
<g>
	<path class="st0" d="M400,53.2c-132.7,0-240.7,108-240.7,240.7c0,127.8,218.4,426.3,227.7,438.9l8.7,11.8c1,1.4,2.6,2.2,4.3,2.2
		c1.7,0,3.3-0.8,4.4-2.2l8.7-11.8c9.3-12.6,227.7-311.1,227.7-438.9C640.7,161.2,532.7,53.2,400,53.2z M400,207.7
		c47.6,0,86.2,38.7,86.2,86.2c0,47.5-38.7,86.2-86.2,86.2c-47.5,0-86.2-38.7-86.2-86.2C313.8,246.4,352.5,207.7,400,207.7z"/>
</g>
</svg>
