<?xml version="1.0" encoding="utf-8"?>
<!-- Generator: Adobe Illustrator 24.3.0, SVG Export Plug-In . SVG Version: 6.00 Build 0)  -->
<svg version="1.1" id="Layer_1" xmlns="http://www.w3.org/2000/svg" xmlns:xlink="http://www.w3.org/1999/xlink" x="0px" y="0px"
	 viewBox="0 0 256 256" style="enable-background:new 0 0 256 256;" xml:space="preserve">
<style type="text/css">
	.st0{fill:#3954A4;}
</style>
<g transform="translate(1.4065934065934016 1.4065934065934016) scale(2.81 2.81)">
	<path class="st0" d="M75.5,78.7H14.5C6.5,78.7,0,72.3,0,64.3V25.7c0-8,6.5-14.5,14.5-14.5h61.1c8,0,14.5,6.5,14.5,14.5v38.6
		C90,72.3,83.5,78.7,75.5,78.7z M14.5,15.5c-5.6,0-10.2,4.6-10.2,10.2v38.6c0,5.6,4.6,10.2,10.2,10.2h61.1c5.6,0,10.2-4.6,10.2-10.2
		V25.7c0-5.6-4.6-10.2-10.2-10.2H14.5z"/>
	<path class="st0" d="M11,25.9C21.8,36.4,32.7,47,43.5,57.5c2,2,5.1-1.1,3.1-3.1C35.7,43.9,24.9,33.4,14.1,22.8
		C12.1,20.9,9,24,11,25.9L11,25.9z"/>
	<path class="st0" d="M46.5,57.5C57.3,47,68.2,36.4,79,25.9c2-2-1.1-5.1-3.1-3.1C65.1,33.4,54.3,43.9,43.5,54.4
		C41.4,56.4,44.5,59.5,46.5,57.5L46.5,57.5z"/>
	<path class="st0" d="M78.8,65c-7.2-6.8-14.4-13.6-21.6-20.5c-2-1.9-5.1,1.1-3.1,3.1c7.2,6.8,14.4,13.6,21.6,20.5
		C77.8,70,80.9,66.9,78.8,65L78.8,65z"/>
	<path class="st0" d="M14.4,68c7.2-6.8,14.4-13.6,21.6-20.5c2-1.9-1-5-3.1-3.1C25.7,51.3,18.5,58.1,11.4,65
		C9.3,66.9,12.4,70,14.4,68L14.4,68z"/>
</g>
</svg>
