<?xml version="1.0" encoding="utf-8"?>
<!-- Generator: Adobe Illustrator 24.3.0, SVG Export Plug-In . SVG Version: 6.00 Build 0)  -->
<svg version="1.1" id="Capa_1" xmlns="http://www.w3.org/2000/svg" xmlns:xlink="http://www.w3.org/1999/xlink" x="0px" y="0px"
	 viewBox="0 0 800 800" style="enable-background:new 0 0 800 800;" xml:space="preserve">
<style type="text/css">
	.st0{fill:#3954A4;}
</style>
<g>
	<g>
		<path class="st0" d="M585.8,476.4c-13.1-13.6-28.9-20.9-45.6-20.9c-16.6,0-32.5,7.2-46.2,20.8l-42.7,42.5c-3.5-1.9-7-3.6-10.4-5.4
			c-4.9-2.4-9.5-4.7-13.4-7.2c-40-25.4-76.3-58.5-111.1-101.3c-16.9-21.3-28.2-39.3-36.5-57.5c11.1-10.1,21.3-20.7,31.3-30.8
			c3.8-3.8,7.6-7.7,11.3-11.5c28.4-28.4,28.4-65.1,0-93.5l-36.9-36.9c-4.2-4.2-8.5-8.5-12.6-12.8c-8.1-8.4-16.6-17-25.4-25.1
			c-13.1-13-28.8-19.9-45.2-19.9s-32.4,6.9-45.9,19.9c-0.1,0.1-0.1,0.1-0.3,0.3l-45.9,46.3c-17.3,17.3-27.1,38.4-29.3,62.8
			c-3.2,39.4,8.4,76.2,17.3,100.2c21.9,59,54.6,113.7,103.3,172.3c59.2,70.6,130.3,126.4,211.6,165.7
			c31.1,14.7,72.5,32.1,118.8,35.1c2.8,0.1,5.8,0.3,8.5,0.3c31.2,0,57.4-11.2,77.9-33.5c0.1-0.3,0.4-0.4,0.5-0.7
			c7-8.5,15.1-16.2,23.6-24.4c5.8-5.5,11.7-11.3,17.6-17.4c13.4-13.9,20.4-30.1,20.4-46.7c0-16.7-7.2-32.8-20.8-46.3L585.8,476.4z
			 M634.1,618.6C634,618.6,634,618.8,634.1,618.6c-5.3,5.7-10.7,10.8-16.5,16.5c-8.8,8.4-17.7,17.2-26.1,27
			c-13.6,14.6-29.7,21.5-50.8,21.5c-2,0-4.2,0-6.2-0.1c-40.1-2.6-77.4-18.2-105.3-31.6c-76.4-37-143.6-89.5-199.3-156.1
			c-46.1-55.5-76.8-106.8-97.2-161.9c-12.6-33.6-17.2-59.8-15.1-84.5c1.4-15.8,7.4-28.9,18.6-40.1l46.1-46.1
			c6.6-6.2,13.6-9.6,20.5-9.6c8.5,0,15.4,5.1,19.7,9.5c0.1,0.1,0.3,0.3,0.4,0.4c8.2,7.7,16.1,15.7,24.3,24.2
			c4.2,4.3,8.5,8.6,12.8,13.1l36.9,36.9c14.3,14.3,14.3,27.5,0,41.9c-3.9,3.9-7.7,7.8-11.6,11.6c-11.3,11.6-22.1,22.4-33.9,33
			c-0.3,0.3-0.5,0.4-0.7,0.7c-11.6,11.6-9.5,23-7,30.7c0.1,0.4,0.3,0.8,0.4,1.2c9.6,23.2,23.1,45.1,43.6,71.2l0.1,0.1
			c37.3,45.9,76.6,81.7,119.9,109.1c5.5,3.5,11.2,6.3,16.6,9c4.9,2.4,9.5,4.7,13.4,7.2c0.5,0.3,1.1,0.7,1.6,0.9
			c4.6,2.3,8.9,3.4,13.4,3.4c11.2,0,18.2-7,20.5-9.3l46.2-46.2c4.6-4.6,11.9-10.1,20.4-10.1c8.4,0,15.3,5.3,19.4,9.9
			c0.1,0.1,0.1,0.1,0.3,0.3l74.4,74.4C647.9,590.2,647.9,604.3,634.1,618.6z"/>
		<path class="st0" d="M425.9,232.3c35.4,5.9,67.5,22.7,93.2,48.3c25.7,25.7,42.3,57.8,48.3,93.2c1.5,8.9,9.2,15.1,18,15.1
			c1.1,0,2-0.1,3.1-0.3c10-1.6,16.6-11.1,15-21.1c-7.3-42.8-27.5-81.8-58.5-112.8c-30.9-30.9-70-51.2-112.8-58.5
			c-10-1.6-19.3,5-21.1,14.9C409.4,221.1,415.9,230.7,425.9,232.3z"/>
		<path class="st0" d="M719.2,362.3c-12-70.5-45.2-134.6-96.3-185.7S507.7,92.4,437.2,80.3c-9.9-1.8-19.2,5-20.9,14.9
			c-1.6,10,5,19.3,15,21.1c62.9,10.7,120.3,40.5,166,86c45.6,45.6,75.4,103,86,166c1.5,8.9,9.2,15.1,18,15.1c1.1,0,2-0.1,3.1-0.3
			C714.2,381.6,720.9,372.2,719.2,362.3z"/>
	</g>
</g>
</svg>
